# Wavefront OBJ file automatically generated by Tiled2Unity

# Vertices (Count = 336)
v -304 -16 0
v -320 -16 0
v -320 0 0
v -304 0 0
v -288 -16 0
v -288 0 0
v -272 -16 0
v -272 0 0
v -256 -16 0
v -256 0 0
v -240 -16 0
v -240 0 0
v -224 -16 0
v -224 0 0
v -208 -16 0
v -208 0 0
v -192 -16 0
v -192 0 0
v -176 -16 0
v -176 0 0
v -160 -16 0
v -160 0 0
v -144 -16 0
v -144 0 0
v -128 -16 0
v -128 0 0
v -112 -16 0
v -112 0 0
v -96 -16 0
v -96 0 0
v -80 -16 0
v -80 0 0
v -64 -16 0
v -64 0 0
v -48 -16 0
v -48 0 0
v -32 -16 0
v -32 0 0
v -16 -16 0
v -16 0 0
v 0 -16 0
v 0 0 0
v -304 -32 0
v -320 -32 0
v -288 -32 0
v -272 -32 0
v -256 -32 0
v -240 -32 0
v -224 -32 0
v -208 -32 0
v -192 -32 0
v -176 -32 0
v -160 -32 0
v -144 -32 0
v -128 -32 0
v -112 -32 0
v -96 -32 0
v -80 -32 0
v -64 -32 0
v -48 -32 0
v -32 -32 0
v -16 -32 0
v 0 -32 0
v -304 -48 0
v -320 -48 0
v -288 -48 0
v -272 -48 0
v -256 -48 0
v -240 -48 0
v -224 -48 0
v -208 -48 0
v -192 -48 0
v -176 -48 0
v -160 -48 0
v -144 -48 0
v -128 -48 0
v -112 -48 0
v -96 -48 0
v -80 -48 0
v -64 -48 0
v -48 -48 0
v -32 -48 0
v -16 -48 0
v 0 -48 0
v -304 -64 0
v -320 -64 0
v -288 -64 0
v -272 -64 0
v -256 -64 0
v -240 -64 0
v -224 -64 0
v -208 -64 0
v -192 -64 0
v -176 -64 0
v -160 -64 0
v -144 -64 0
v -128 -64 0
v -112 -64 0
v -96 -64 0
v -80 -64 0
v -64 -64 0
v -48 -64 0
v -32 -64 0
v -16 -64 0
v 0 -64 0
v -304 -80 0
v -320 -80 0
v -288 -80 0
v -272 -80 0
v -256 -80 0
v -240 -80 0
v -224 -80 0
v -208 -80 0
v -192 -80 0
v -176 -80 0
v -160 -80 0
v -144 -80 0
v -128 -80 0
v -112 -80 0
v -96 -80 0
v -80 -80 0
v -64 -80 0
v -48 -80 0
v -32 -80 0
v -16 -80 0
v 0 -80 0
v -304 -96 0
v -320 -96 0
v -288 -96 0
v -272 -96 0
v -256 -96 0
v -240 -96 0
v -224 -96 0
v -208 -96 0
v -192 -96 0
v -176 -96 0
v -160 -96 0
v -144 -96 0
v -128 -96 0
v -112 -96 0
v -96 -96 0
v -80 -96 0
v -64 -96 0
v -48 -96 0
v -32 -96 0
v -16 -96 0
v 0 -96 0
v -304 -112 0
v -320 -112 0
v -288 -112 0
v -272 -112 0
v -256 -112 0
v -240 -112 0
v -224 -112 0
v -208 -112 0
v -192 -112 0
v -176 -112 0
v -160 -112 0
v -144 -112 0
v -128 -112 0
v -112 -112 0
v -96 -112 0
v -80 -112 0
v -64 -112 0
v -48 -112 0
v -32 -112 0
v -16 -112 0
v 0 -112 0
v -304 -128 0
v -320 -128 0
v -288 -128 0
v -272 -128 0
v -256 -128 0
v -240 -128 0
v -224 -128 0
v -208 -128 0
v -192 -128 0
v -176 -128 0
v -160 -128 0
v -144 -128 0
v -128 -128 0
v -112 -128 0
v -96 -128 0
v -80 -128 0
v -64 -128 0
v -48 -128 0
v -32 -128 0
v -16 -128 0
v 0 -128 0
v -304 -144 0
v -320 -144 0
v -288 -144 0
v -272 -144 0
v -256 -144 0
v -240 -144 0
v -224 -144 0
v -208 -144 0
v -192 -144 0
v -176 -144 0
v -160 -144 0
v -144 -144 0
v -128 -144 0
v -112 -144 0
v -96 -144 0
v -80 -144 0
v -64 -144 0
v -48 -144 0
v -32 -144 0
v -16 -144 0
v 0 -144 0
v -304 -160 0
v -320 -160 0
v -288 -160 0
v -272 -160 0
v -256 -160 0
v -240 -160 0
v -224 -160 0
v -208 -160 0
v -192 -160 0
v -176 -160 0
v -160 -160 0
v -144 -160 0
v -128 -160 0
v -112 -160 0
v -96 -160 0
v -80 -160 0
v -64 -160 0
v -48 -160 0
v -32 -160 0
v -16 -160 0
v 0 -160 0
v -304 -176 0
v -320 -176 0
v -288 -176 0
v -272 -176 0
v -256 -176 0
v -240 -176 0
v -224 -176 0
v -208 -176 0
v -192 -176 0
v -176 -176 0
v -160 -176 0
v -144 -176 0
v -128 -176 0
v -112 -176 0
v -96 -176 0
v -80 -176 0
v -64 -176 0
v -48 -176 0
v -32 -176 0
v -16 -176 0
v 0 -176 0
v -304 -192 0
v -320 -192 0
v -288 -192 0
v -272 -192 0
v -256 -192 0
v -240 -192 0
v -224 -192 0
v -208 -192 0
v -192 -192 0
v -176 -192 0
v -160 -192 0
v -144 -192 0
v -128 -192 0
v -112 -192 0
v -96 -192 0
v -80 -192 0
v -64 -192 0
v -48 -192 0
v -32 -192 0
v -16 -192 0
v 0 -192 0
v -304 -208 0
v -320 -208 0
v -288 -208 0
v -272 -208 0
v -256 -208 0
v -240 -208 0
v -224 -208 0
v -208 -208 0
v -192 -208 0
v -176 -208 0
v -160 -208 0
v -144 -208 0
v -128 -208 0
v -112 -208 0
v -96 -208 0
v -80 -208 0
v -64 -208 0
v -48 -208 0
v -32 -208 0
v -16 -208 0
v 0 -208 0
v -304 -224 0
v -320 -224 0
v -288 -224 0
v -272 -224 0
v -256 -224 0
v -240 -224 0
v -224 -224 0
v -208 -224 0
v -192 -224 0
v -176 -224 0
v -160 -224 0
v -144 -224 0
v -128 -224 0
v -112 -224 0
v -96 -224 0
v -80 -224 0
v -64 -224 0
v -48 -224 0
v -32 -224 0
v -16 -224 0
v 0 -224 0
v -304 -240 0
v -320 -240 0
v -288 -240 0
v -272 -240 0
v -256 -240 0
v -240 -240 0
v -224 -240 0
v -208 -240 0
v -192 -240 0
v -176 -240 0
v -160 -240 0
v -144 -240 0
v -128 -240 0
v -112 -240 0
v -96 -240 0
v -80 -240 0
v -64 -240 0
v -48 -240 0
v -32 -240 0
v -16 -240 0
v 0 -240 0

# Texture cooridinates (Count = 92)
vt 0.2986758 0.5818711
vt 0.3149606 0.5818711
vt 0.3149606 0.6120452
vt 0.2986758 0.6120452
vt 0.2459898 0.5818711
vt 0.2622746 0.5818711
vt 0.2622746 0.6120452
vt 0.2459898 0.6120452
vt 0.2811138 0.5818711
vt 0.2973986 0.5818711
vt 0.2973986 0.6120452
vt 0.2811138 0.6120452
vt 0.2635518 0.5495517
vt 0.2798366 0.5495517
vt 0.2798366 0.5797259
vt 0.2635518 0.5797259
vt 0.3162378 0.4849129
vt 0.3325226 0.4849129
vt 0.3325226 0.5150871
vt 0.3162378 0.5150871
vt 0.2284279 0.4849129
vt 0.2447126 0.4849129
vt 0.2447126 0.5150871
vt 0.2284279 0.5150871
vt 0.07037 0.1293996
vt 0.08665479 0.1293996
vt 0.08665479 0.1595737
vt 0.07037 0.1595737
vt 0.2986758 0.5495517
vt 0.3149606 0.5495517
vt 0.3149606 0.5797259
vt 0.2986758 0.5797259
vt 0.2811138 0.5495517
vt 0.2973986 0.5495517
vt 0.2973986 0.5797259
vt 0.2811138 0.5797259
vt 0.5796675 0.2909966
vt 0.5959523 0.2909966
vt 0.5959523 0.3211707
vt 0.5796675 0.3211707
vt 0.5621055 0.2909966
vt 0.5783903 0.2909966
vt 0.5783903 0.3211707
vt 0.5621055 0.3211707
vt 0.5445436 0.2909966
vt 0.5608283 0.2909966
vt 0.5608283 0.3211707
vt 0.5445436 0.3211707
vt 0.5796675 0.2263578
vt 0.5959523 0.2263578
vt 0.5959523 0.2565319
vt 0.5796675 0.2565319
vt 0.5621055 0.2263578
vt 0.5783903 0.2263578
vt 0.5783903 0.2565319
vt 0.5621055 0.2565319
vt 0.5445436 0.2263578
vt 0.5608283 0.2263578
vt 0.5608283 0.2565319
vt 0.5445436 0.2565319
vt 0.3337997 0.8727456
vt 0.3500845 0.8727456
vt 0.3500845 0.9029198
vt 0.3337997 0.9029198
vt 0.3513618 0.7757875
vt 0.3676465 0.7757875
vt 0.3676465 0.8059616
vt 0.3513618 0.8059616
vt 0.3337997 0.7757875
vt 0.3500845 0.7757875
vt 0.3500845 0.8059616
vt 0.3337997 0.8059616
vt 0.3513618 0.8404263
vt 0.3676465 0.8404263
vt 0.3676465 0.8706003
vt 0.3513618 0.8706003
vt 0.5796675 0.9697038
vt 0.5959523 0.9697038
vt 0.5959523 0.9998779
vt 0.5796675 0.9998779
vt 0.7069054 0.2788106
vt 0.7416722 0.2788106
vt 0.7416722 0.3310255
vt 0.7069054 0.3310255
vt 0.6325072 0.9476631
vt 0.667274 0.9476631
vt 0.667274 0.9998779
vt 0.6325072 0.9998779
vt 0.5953081 0.9476631
vt 0.6300749 0.9476631
vt 0.6300749 0.9998779
vt 0.5953081 0.9998779

# Normal
vn 0 0 -1

# Groups (Count = 2)

g mesh_0001
f 1/1/1 2/2/1 3/3/1 4/4/1
f 5/5/1 1/6/1 4/7/1 6/8/1
f 7/5/1 5/6/1 6/7/1 8/8/1
f 9/5/1 7/6/1 8/7/1 10/8/1
f 11/5/1 9/6/1 10/7/1 12/8/1
f 13/5/1 11/6/1 12/7/1 14/8/1
f 15/5/1 13/6/1 14/7/1 16/8/1
f 17/5/1 15/6/1 16/7/1 18/8/1
f 19/5/1 17/6/1 18/7/1 20/8/1
f 21/5/1 19/6/1 20/7/1 22/8/1
f 23/5/1 21/6/1 22/7/1 24/8/1
f 25/5/1 23/6/1 24/7/1 26/8/1
f 27/5/1 25/6/1 26/7/1 28/8/1
f 29/5/1 27/6/1 28/7/1 30/8/1
f 31/5/1 29/6/1 30/7/1 32/8/1
f 33/5/1 31/6/1 32/7/1 34/8/1
f 35/5/1 33/6/1 34/7/1 36/8/1
f 37/5/1 35/6/1 36/7/1 38/8/1
f 39/5/1 37/6/1 38/7/1 40/8/1
f 41/9/1 39/10/1 40/11/1 42/12/1
f 43/13/1 44/14/1 2/15/1 1/16/1
f 45/17/1 43/18/1 1/19/1 5/20/1
f 46/17/1 45/18/1 5/19/1 7/20/1
f 47/17/1 46/18/1 7/19/1 9/20/1
f 48/17/1 47/18/1 9/19/1 11/20/1
f 49/17/1 48/18/1 11/19/1 13/20/1
f 50/17/1 49/18/1 13/19/1 15/20/1
f 51/17/1 50/18/1 15/19/1 17/20/1
f 52/17/1 51/18/1 17/19/1 19/20/1
f 53/17/1 52/18/1 19/19/1 21/20/1
f 54/17/1 53/18/1 21/19/1 23/20/1
f 55/17/1 54/18/1 23/19/1 25/20/1
f 56/17/1 55/18/1 25/19/1 27/20/1
f 57/17/1 56/18/1 27/19/1 29/20/1
f 58/17/1 57/18/1 29/19/1 31/20/1
f 59/17/1 58/18/1 31/19/1 33/20/1
f 60/17/1 59/18/1 33/19/1 35/20/1
f 61/17/1 60/18/1 35/19/1 37/20/1
f 62/17/1 61/18/1 37/19/1 39/20/1
f 63/13/1 62/14/1 39/15/1 41/16/1
f 64/13/1 65/14/1 44/15/1 43/16/1
f 66/17/1 64/18/1 43/19/1 45/20/1
f 67/17/1 66/18/1 45/19/1 46/20/1
f 68/17/1 67/18/1 46/19/1 47/20/1
f 69/17/1 68/18/1 47/19/1 48/20/1
f 70/17/1 69/18/1 48/19/1 49/20/1
f 71/17/1 70/18/1 49/19/1 50/20/1
f 72/17/1 71/18/1 50/19/1 51/20/1
f 73/17/1 72/18/1 51/19/1 52/20/1
f 74/17/1 73/18/1 52/19/1 53/20/1
f 75/17/1 74/18/1 53/19/1 54/20/1
f 76/17/1 75/18/1 54/19/1 55/20/1
f 77/17/1 76/18/1 55/19/1 56/20/1
f 78/17/1 77/18/1 56/19/1 57/20/1
f 79/17/1 78/18/1 57/19/1 58/20/1
f 80/17/1 79/18/1 58/19/1 59/20/1
f 81/17/1 80/18/1 59/19/1 60/20/1
f 82/17/1 81/18/1 60/19/1 61/20/1
f 83/17/1 82/18/1 61/19/1 62/20/1
f 84/13/1 83/14/1 62/15/1 63/16/1
f 85/13/1 86/14/1 65/15/1 64/16/1
f 87/21/1 85/22/1 64/23/1 66/24/1
f 88/21/1 87/22/1 66/23/1 67/24/1
f 89/21/1 88/22/1 67/23/1 68/24/1
f 90/21/1 89/22/1 68/23/1 69/24/1
f 91/21/1 90/22/1 69/23/1 70/24/1
f 92/21/1 91/22/1 70/23/1 71/24/1
f 93/21/1 92/22/1 71/23/1 72/24/1
f 94/21/1 93/22/1 72/23/1 73/24/1
f 95/21/1 94/22/1 73/23/1 74/24/1
f 96/21/1 95/22/1 74/23/1 75/24/1
f 97/21/1 96/22/1 75/23/1 76/24/1
f 98/21/1 97/22/1 76/23/1 77/24/1
f 99/21/1 98/22/1 77/23/1 78/24/1
f 100/21/1 99/22/1 78/23/1 79/24/1
f 101/21/1 100/22/1 79/23/1 80/24/1
f 102/21/1 101/22/1 80/23/1 81/24/1
f 103/21/1 102/22/1 81/23/1 82/24/1
f 104/21/1 103/22/1 82/23/1 83/24/1
f 105/13/1 104/14/1 83/15/1 84/16/1
f 106/13/1 107/14/1 86/15/1 85/16/1
f 108/25/1 106/26/1 85/27/1 87/28/1
f 109/25/1 108/26/1 87/27/1 88/28/1
f 110/25/1 109/26/1 88/27/1 89/28/1
f 111/25/1 110/26/1 89/27/1 90/28/1
f 112/25/1 111/26/1 90/27/1 91/28/1
f 113/25/1 112/26/1 91/27/1 92/28/1
f 114/25/1 113/26/1 92/27/1 93/28/1
f 115/25/1 114/26/1 93/27/1 94/28/1
f 116/25/1 115/26/1 94/27/1 95/28/1
f 117/25/1 116/26/1 95/27/1 96/28/1
f 118/25/1 117/26/1 96/27/1 97/28/1
f 119/25/1 118/26/1 97/27/1 98/28/1
f 120/25/1 119/26/1 98/27/1 99/28/1
f 121/25/1 120/26/1 99/27/1 100/28/1
f 122/25/1 121/26/1 100/27/1 101/28/1
f 123/25/1 122/26/1 101/27/1 102/28/1
f 124/25/1 123/26/1 102/27/1 103/28/1
f 125/25/1 124/26/1 103/27/1 104/28/1
f 126/13/1 125/14/1 104/15/1 105/16/1
f 127/13/1 128/14/1 107/15/1 106/16/1
f 129/25/1 127/26/1 106/27/1 108/28/1
f 130/25/1 129/26/1 108/27/1 109/28/1
f 131/25/1 130/26/1 109/27/1 110/28/1
f 132/25/1 131/26/1 110/27/1 111/28/1
f 133/25/1 132/26/1 111/27/1 112/28/1
f 134/25/1 133/26/1 112/27/1 113/28/1
f 135/25/1 134/26/1 113/27/1 114/28/1
f 136/25/1 135/26/1 114/27/1 115/28/1
f 137/25/1 136/26/1 115/27/1 116/28/1
f 138/25/1 137/26/1 116/27/1 117/28/1
f 139/25/1 138/26/1 117/27/1 118/28/1
f 140/25/1 139/26/1 118/27/1 119/28/1
f 141/25/1 140/26/1 119/27/1 120/28/1
f 142/25/1 141/26/1 120/27/1 121/28/1
f 143/25/1 142/26/1 121/27/1 122/28/1
f 144/25/1 143/26/1 122/27/1 123/28/1
f 145/25/1 144/26/1 123/27/1 124/28/1
f 146/25/1 145/26/1 124/27/1 125/28/1
f 147/13/1 146/14/1 125/15/1 126/16/1
f 148/13/1 149/14/1 128/15/1 127/16/1
f 150/25/1 148/26/1 127/27/1 129/28/1
f 151/25/1 150/26/1 129/27/1 130/28/1
f 152/25/1 151/26/1 130/27/1 131/28/1
f 153/25/1 152/26/1 131/27/1 132/28/1
f 154/25/1 153/26/1 132/27/1 133/28/1
f 155/25/1 154/26/1 133/27/1 134/28/1
f 156/25/1 155/26/1 134/27/1 135/28/1
f 157/25/1 156/26/1 135/27/1 136/28/1
f 158/25/1 157/26/1 136/27/1 137/28/1
f 159/25/1 158/26/1 137/27/1 138/28/1
f 160/25/1 159/26/1 138/27/1 139/28/1
f 161/25/1 160/26/1 139/27/1 140/28/1
f 162/25/1 161/26/1 140/27/1 141/28/1
f 163/25/1 162/26/1 141/27/1 142/28/1
f 164/25/1 163/26/1 142/27/1 143/28/1
f 165/25/1 164/26/1 143/27/1 144/28/1
f 166/25/1 165/26/1 144/27/1 145/28/1
f 167/25/1 166/26/1 145/27/1 146/28/1
f 168/13/1 167/14/1 146/15/1 147/16/1
f 169/13/1 170/14/1 149/15/1 148/16/1
f 171/25/1 169/26/1 148/27/1 150/28/1
f 172/25/1 171/26/1 150/27/1 151/28/1
f 173/25/1 172/26/1 151/27/1 152/28/1
f 174/25/1 173/26/1 152/27/1 153/28/1
f 175/25/1 174/26/1 153/27/1 154/28/1
f 176/25/1 175/26/1 154/27/1 155/28/1
f 177/25/1 176/26/1 155/27/1 156/28/1
f 178/25/1 177/26/1 156/27/1 157/28/1
f 179/25/1 178/26/1 157/27/1 158/28/1
f 180/25/1 179/26/1 158/27/1 159/28/1
f 181/25/1 180/26/1 159/27/1 160/28/1
f 182/25/1 181/26/1 160/27/1 161/28/1
f 183/25/1 182/26/1 161/27/1 162/28/1
f 184/25/1 183/26/1 162/27/1 163/28/1
f 185/25/1 184/26/1 163/27/1 164/28/1
f 186/25/1 185/26/1 164/27/1 165/28/1
f 187/25/1 186/26/1 165/27/1 166/28/1
f 188/25/1 187/26/1 166/27/1 167/28/1
f 189/13/1 188/14/1 167/15/1 168/16/1
f 190/13/1 191/14/1 170/15/1 169/16/1
f 192/25/1 190/26/1 169/27/1 171/28/1
f 193/25/1 192/26/1 171/27/1 172/28/1
f 194/25/1 193/26/1 172/27/1 173/28/1
f 195/25/1 194/26/1 173/27/1 174/28/1
f 196/25/1 195/26/1 174/27/1 175/28/1
f 197/25/1 196/26/1 175/27/1 176/28/1
f 198/25/1 197/26/1 176/27/1 177/28/1
f 199/25/1 198/26/1 177/27/1 178/28/1
f 200/25/1 199/26/1 178/27/1 179/28/1
f 201/25/1 200/26/1 179/27/1 180/28/1
f 202/25/1 201/26/1 180/27/1 181/28/1
f 203/25/1 202/26/1 181/27/1 182/28/1
f 204/25/1 203/26/1 182/27/1 183/28/1
f 205/25/1 204/26/1 183/27/1 184/28/1
f 206/25/1 205/26/1 184/27/1 185/28/1
f 207/25/1 206/26/1 185/27/1 186/28/1
f 208/25/1 207/26/1 186/27/1 187/28/1
f 209/25/1 208/26/1 187/27/1 188/28/1
f 210/13/1 209/14/1 188/15/1 189/16/1
f 211/13/1 212/14/1 191/15/1 190/16/1
f 213/25/1 211/26/1 190/27/1 192/28/1
f 214/25/1 213/26/1 192/27/1 193/28/1
f 215/25/1 214/26/1 193/27/1 194/28/1
f 216/25/1 215/26/1 194/27/1 195/28/1
f 217/25/1 216/26/1 195/27/1 196/28/1
f 218/25/1 217/26/1 196/27/1 197/28/1
f 219/25/1 218/26/1 197/27/1 198/28/1
f 220/25/1 219/26/1 198/27/1 199/28/1
f 221/25/1 220/26/1 199/27/1 200/28/1
f 222/25/1 221/26/1 200/27/1 201/28/1
f 223/25/1 222/26/1 201/27/1 202/28/1
f 224/25/1 223/26/1 202/27/1 203/28/1
f 225/25/1 224/26/1 203/27/1 204/28/1
f 226/25/1 225/26/1 204/27/1 205/28/1
f 227/25/1 226/26/1 205/27/1 206/28/1
f 228/25/1 227/26/1 206/27/1 207/28/1
f 229/25/1 228/26/1 207/27/1 208/28/1
f 230/25/1 229/26/1 208/27/1 209/28/1
f 231/13/1 230/14/1 209/15/1 210/16/1
f 232/13/1 233/14/1 212/15/1 211/16/1
f 234/25/1 232/26/1 211/27/1 213/28/1
f 235/25/1 234/26/1 213/27/1 214/28/1
f 236/25/1 235/26/1 214/27/1 215/28/1
f 237/25/1 236/26/1 215/27/1 216/28/1
f 238/25/1 237/26/1 216/27/1 217/28/1
f 239/25/1 238/26/1 217/27/1 218/28/1
f 240/25/1 239/26/1 218/27/1 219/28/1
f 241/25/1 240/26/1 219/27/1 220/28/1
f 242/25/1 241/26/1 220/27/1 221/28/1
f 243/25/1 242/26/1 221/27/1 222/28/1
f 244/25/1 243/26/1 222/27/1 223/28/1
f 245/25/1 244/26/1 223/27/1 224/28/1
f 246/25/1 245/26/1 224/27/1 225/28/1
f 247/25/1 246/26/1 225/27/1 226/28/1
f 248/25/1 247/26/1 226/27/1 227/28/1
f 249/25/1 248/26/1 227/27/1 228/28/1
f 250/25/1 249/26/1 228/27/1 229/28/1
f 251/25/1 250/26/1 229/27/1 230/28/1
f 252/13/1 251/14/1 230/15/1 231/16/1
f 253/13/1 254/14/1 233/15/1 232/16/1
f 255/25/1 253/26/1 232/27/1 234/28/1
f 256/25/1 255/26/1 234/27/1 235/28/1
f 257/25/1 256/26/1 235/27/1 236/28/1
f 258/25/1 257/26/1 236/27/1 237/28/1
f 259/25/1 258/26/1 237/27/1 238/28/1
f 260/25/1 259/26/1 238/27/1 239/28/1
f 261/25/1 260/26/1 239/27/1 240/28/1
f 262/25/1 261/26/1 240/27/1 241/28/1
f 263/25/1 262/26/1 241/27/1 242/28/1
f 264/25/1 263/26/1 242/27/1 243/28/1
f 265/25/1 264/26/1 243/27/1 244/28/1
f 266/25/1 265/26/1 244/27/1 245/28/1
f 267/25/1 266/26/1 245/27/1 246/28/1
f 268/25/1 267/26/1 246/27/1 247/28/1
f 269/25/1 268/26/1 247/27/1 248/28/1
f 270/25/1 269/26/1 248/27/1 249/28/1
f 271/25/1 270/26/1 249/27/1 250/28/1
f 272/25/1 271/26/1 250/27/1 251/28/1
f 273/13/1 272/14/1 251/15/1 252/16/1
f 274/13/1 275/14/1 254/15/1 253/16/1
f 276/25/1 274/26/1 253/27/1 255/28/1
f 277/25/1 276/26/1 255/27/1 256/28/1
f 278/25/1 277/26/1 256/27/1 257/28/1
f 279/25/1 278/26/1 257/27/1 258/28/1
f 280/25/1 279/26/1 258/27/1 259/28/1
f 281/25/1 280/26/1 259/27/1 260/28/1
f 282/25/1 281/26/1 260/27/1 261/28/1
f 283/25/1 282/26/1 261/27/1 262/28/1
f 284/25/1 283/26/1 262/27/1 263/28/1
f 285/25/1 284/26/1 263/27/1 264/28/1
f 286/25/1 285/26/1 264/27/1 265/28/1
f 287/25/1 286/26/1 265/27/1 266/28/1
f 288/25/1 287/26/1 266/27/1 267/28/1
f 289/25/1 288/26/1 267/27/1 268/28/1
f 290/25/1 289/26/1 268/27/1 269/28/1
f 291/25/1 290/26/1 269/27/1 270/28/1
f 292/25/1 291/26/1 270/27/1 271/28/1
f 293/25/1 292/26/1 271/27/1 272/28/1
f 294/13/1 293/14/1 272/15/1 273/16/1
f 295/13/1 296/14/1 275/15/1 274/16/1
f 297/25/1 295/26/1 274/27/1 276/28/1
f 298/25/1 297/26/1 276/27/1 277/28/1
f 299/25/1 298/26/1 277/27/1 278/28/1
f 300/25/1 299/26/1 278/27/1 279/28/1
f 301/25/1 300/26/1 279/27/1 280/28/1
f 302/25/1 301/26/1 280/27/1 281/28/1
f 303/25/1 302/26/1 281/27/1 282/28/1
f 304/25/1 303/26/1 282/27/1 283/28/1
f 305/25/1 304/26/1 283/27/1 284/28/1
f 306/25/1 305/26/1 284/27/1 285/28/1
f 307/25/1 306/26/1 285/27/1 286/28/1
f 308/25/1 307/26/1 286/27/1 287/28/1
f 309/25/1 308/26/1 287/27/1 288/28/1
f 310/25/1 309/26/1 288/27/1 289/28/1
f 311/25/1 310/26/1 289/27/1 290/28/1
f 312/25/1 311/26/1 290/27/1 291/28/1
f 313/25/1 312/26/1 291/27/1 292/28/1
f 314/25/1 313/26/1 292/27/1 293/28/1
f 315/13/1 314/14/1 293/15/1 294/16/1
f 316/29/1 317/30/1 296/31/1 295/32/1
f 318/5/1 316/6/1 295/7/1 297/8/1
f 319/5/1 318/6/1 297/7/1 298/8/1
f 320/5/1 319/6/1 298/7/1 299/8/1
f 321/5/1 320/6/1 299/7/1 300/8/1
f 322/5/1 321/6/1 300/7/1 301/8/1
f 323/5/1 322/6/1 301/7/1 302/8/1
f 324/5/1 323/6/1 302/7/1 303/8/1
f 325/5/1 324/6/1 303/7/1 304/8/1
f 326/5/1 325/6/1 304/7/1 305/8/1
f 327/5/1 326/6/1 305/7/1 306/8/1
f 328/5/1 327/6/1 306/7/1 307/8/1
f 329/5/1 328/6/1 307/7/1 308/8/1
f 330/5/1 329/6/1 308/7/1 309/8/1
f 331/5/1 330/6/1 309/7/1 310/8/1
f 332/5/1 331/6/1 310/7/1 311/8/1
f 333/5/1 332/6/1 311/7/1 312/8/1
f 334/5/1 333/6/1 312/7/1 313/8/1
f 335/5/1 334/6/1 313/7/1 314/8/1
f 336/33/1 335/34/1 314/35/1 315/36/1

g mesh_0002
f 51/37/1 50/38/1 15/39/1 17/40/1
f 52/41/1 51/42/1 17/43/1 19/44/1
f 53/41/1 52/42/1 19/43/1 21/44/1
f 54/41/1 53/42/1 21/43/1 23/44/1
f 55/41/1 54/42/1 23/43/1 25/44/1
f 56/45/1 55/46/1 25/47/1 27/48/1
f 72/49/1 71/50/1 50/51/1 51/52/1
f 73/53/1 72/54/1 51/55/1 52/56/1
f 74/53/1 73/54/1 52/55/1 53/56/1
f 75/53/1 74/54/1 53/55/1 54/56/1
f 76/53/1 75/54/1 54/55/1 55/56/1
f 77/57/1 76/58/1 55/59/1 56/60/1
f 123/61/1 122/62/1 101/63/1 102/64/1
f 143/65/1 142/66/1 121/67/1 122/68/1
f 144/69/1 143/70/1 122/71/1 123/72/1
f 174/65/1 173/66/1 152/67/1 153/68/1
f 175/69/1 174/70/1 153/71/1 154/72/1
f 179/65/1 178/66/1 157/67/1 158/68/1
f 180/69/1 179/70/1 158/71/1 159/72/1
f 185/65/1 184/66/1 163/67/1 164/68/1
f 186/69/1 185/70/1 164/71/1 165/72/1
f 195/73/1 194/74/1 173/75/1 174/76/1
f 196/73/1 195/74/1 174/75/1 175/76/1
f 200/73/1 199/74/1 178/75/1 179/76/1
f 201/73/1 200/74/1 179/75/1 180/76/1
f 206/73/1 205/74/1 184/75/1 185/76/1
f 207/73/1 206/74/1 185/75/1 186/76/1
f 237/65/1 236/66/1 215/67/1 216/68/1
f 238/69/1 237/70/1 216/71/1 217/72/1
f 242/65/1 241/66/1 220/67/1 221/68/1
f 243/69/1 242/70/1 221/71/1 222/72/1
f 248/65/1 247/66/1 226/67/1 227/68/1
f 249/69/1 248/70/1 227/71/1 228/72/1
f 258/73/1 257/74/1 236/75/1 237/76/1
f 259/73/1 258/74/1 237/75/1 238/76/1
f 263/73/1 262/74/1 241/75/1 242/76/1
f 264/73/1 263/74/1 242/75/1 243/76/1
f 269/73/1 268/74/1 247/75/1 248/76/1
f 270/73/1 269/74/1 248/75/1 249/76/1
f 327/77/1 326/78/1 305/79/1 306/80/1

g mesh_0003
f 81/81/1 80/82/1 59/83/1 60/84/1
f 108/85/1 106/86/1 85/87/1 87/88/1
f 125/89/1 124/90/1 103/91/1 104/92/1
f 297/89/1 295/90/1 274/91/1 276/92/1
f 314/85/1 313/86/1 292/87/1 293/88/1

