# Wavefront OBJ file automatically generated by Tiled2Unity

# Vertices (Count = 357)
v -304 -16 0
v -320 -16 0
v -320 0 0
v -304 0 0
v -288 -16 0
v -288 0 0
v -272 -16 0
v -272 0 0
v -256 -16 0
v -256 0 0
v -240 -16 0
v -240 0 0
v -224 -16 0
v -224 0 0
v -208 -16 0
v -208 0 0
v -192 -16 0
v -192 0 0
v -176 -16 0
v -176 0 0
v -160 -16 0
v -160 0 0
v -144 -16 0
v -144 0 0
v -128 -16 0
v -128 0 0
v -112 -16 0
v -112 0 0
v -96 -16 0
v -96 0 0
v -80 -16 0
v -80 0 0
v -64 -16 0
v -64 0 0
v -48 -16 0
v -48 0 0
v -32 -16 0
v -32 0 0
v -16 -16 0
v -16 0 0
v 0 -16 0
v 0 0 0
v -304 -32 0
v -320 -32 0
v -288 -32 0
v -272 -32 0
v -256 -32 0
v -240 -32 0
v -224 -32 0
v -208 -32 0
v -192 -32 0
v -176 -32 0
v -160 -32 0
v -144 -32 0
v -128 -32 0
v -112 -32 0
v -96 -32 0
v -80 -32 0
v -64 -32 0
v -48 -32 0
v -32 -32 0
v -16 -32 0
v 0 -32 0
v -304 -48 0
v -320 -48 0
v -288 -48 0
v -272 -48 0
v -256 -48 0
v -240 -48 0
v -224 -48 0
v -208 -48 0
v -192 -48 0
v -176 -48 0
v -160 -48 0
v -144 -48 0
v -128 -48 0
v -112 -48 0
v -96 -48 0
v -80 -48 0
v -64 -48 0
v -48 -48 0
v -32 -48 0
v -16 -48 0
v 0 -48 0
v -304 -64 0
v -320 -64 0
v -288 -64 0
v -272 -64 0
v -256 -64 0
v -240 -64 0
v -224 -64 0
v -208 -64 0
v -192 -64 0
v -176 -64 0
v -160 -64 0
v -144 -64 0
v -128 -64 0
v -112 -64 0
v -96 -64 0
v -80 -64 0
v -64 -64 0
v -48 -64 0
v -32 -64 0
v -16 -64 0
v 0 -64 0
v -304 -80 0
v -320 -80 0
v -288 -80 0
v -272 -80 0
v -256 -80 0
v -240 -80 0
v -224 -80 0
v -208 -80 0
v -192 -80 0
v -176 -80 0
v -160 -80 0
v -144 -80 0
v -128 -80 0
v -112 -80 0
v -96 -80 0
v -80 -80 0
v -64 -80 0
v -48 -80 0
v -32 -80 0
v -16 -80 0
v 0 -80 0
v -304 -96 0
v -320 -96 0
v -288 -96 0
v -272 -96 0
v -256 -96 0
v -240 -96 0
v -224 -96 0
v -208 -96 0
v -192 -96 0
v -176 -96 0
v -160 -96 0
v -144 -96 0
v -128 -96 0
v -112 -96 0
v -96 -96 0
v -80 -96 0
v -64 -96 0
v -48 -96 0
v -32 -96 0
v -16 -96 0
v 0 -96 0
v -304 -112 0
v -320 -112 0
v -288 -112 0
v -272 -112 0
v -256 -112 0
v -240 -112 0
v -224 -112 0
v -208 -112 0
v -192 -112 0
v -176 -112 0
v -160 -112 0
v -144 -112 0
v -128 -112 0
v -112 -112 0
v -96 -112 0
v -80 -112 0
v -64 -112 0
v -48 -112 0
v -32 -112 0
v -16 -112 0
v 0 -112 0
v -304 -128 0
v -320 -128 0
v -288 -128 0
v -272 -128 0
v -256 -128 0
v -240 -128 0
v -224 -128 0
v -208 -128 0
v -192 -128 0
v -176 -128 0
v -160 -128 0
v -144 -128 0
v -128 -128 0
v -112 -128 0
v -96 -128 0
v -80 -128 0
v -64 -128 0
v -48 -128 0
v -32 -128 0
v -16 -128 0
v 0 -128 0
v -304 -144 0
v -320 -144 0
v -288 -144 0
v -272 -144 0
v -256 -144 0
v -240 -144 0
v -224 -144 0
v -208 -144 0
v -192 -144 0
v -176 -144 0
v -160 -144 0
v -144 -144 0
v -128 -144 0
v -112 -144 0
v -96 -144 0
v -80 -144 0
v -64 -144 0
v -48 -144 0
v -32 -144 0
v -16 -144 0
v 0 -144 0
v -304 -160 0
v -320 -160 0
v -288 -160 0
v -272 -160 0
v -256 -160 0
v -240 -160 0
v -224 -160 0
v -208 -160 0
v -192 -160 0
v -176 -160 0
v -160 -160 0
v -144 -160 0
v -128 -160 0
v -112 -160 0
v -96 -160 0
v -80 -160 0
v -64 -160 0
v -48 -160 0
v -32 -160 0
v -16 -160 0
v 0 -160 0
v -304 -176 0
v -320 -176 0
v -288 -176 0
v -272 -176 0
v -256 -176 0
v -240 -176 0
v -224 -176 0
v -208 -176 0
v -192 -176 0
v -176 -176 0
v -160 -176 0
v -144 -176 0
v -128 -176 0
v -112 -176 0
v -96 -176 0
v -80 -176 0
v -64 -176 0
v -48 -176 0
v -32 -176 0
v -16 -176 0
v 0 -176 0
v -304 -192 0
v -320 -192 0
v -288 -192 0
v -272 -192 0
v -256 -192 0
v -240 -192 0
v -224 -192 0
v -208 -192 0
v -192 -192 0
v -176 -192 0
v -160 -192 0
v -144 -192 0
v -128 -192 0
v -112 -192 0
v -96 -192 0
v -80 -192 0
v -64 -192 0
v -48 -192 0
v -32 -192 0
v -16 -192 0
v 0 -192 0
v -304 -208 0
v -320 -208 0
v -288 -208 0
v -272 -208 0
v -256 -208 0
v -240 -208 0
v -224 -208 0
v -208 -208 0
v -192 -208 0
v -176 -208 0
v -160 -208 0
v -144 -208 0
v -128 -208 0
v -112 -208 0
v -96 -208 0
v -80 -208 0
v -64 -208 0
v -48 -208 0
v -32 -208 0
v -16 -208 0
v 0 -208 0
v -304 -224 0
v -320 -224 0
v -288 -224 0
v -272 -224 0
v -256 -224 0
v -240 -224 0
v -224 -224 0
v -208 -224 0
v -192 -224 0
v -176 -224 0
v -160 -224 0
v -144 -224 0
v -128 -224 0
v -112 -224 0
v -96 -224 0
v -80 -224 0
v -64 -224 0
v -48 -224 0
v -32 -224 0
v -16 -224 0
v 0 -224 0
v -304 -240 0
v -320 -240 0
v -288 -240 0
v -272 -240 0
v -256 -240 0
v -240 -240 0
v -224 -240 0
v -208 -240 0
v -192 -240 0
v -176 -240 0
v -160 -240 0
v -144 -240 0
v -128 -240 0
v -112 -240 0
v -96 -240 0
v -80 -240 0
v -64 -240 0
v -48 -240 0
v -32 -240 0
v -16 -240 0
v 0 -240 0
v -304 -256 0
v -320 -256 0
v -288 -256 0
v -272 -256 0
v -256 -256 0
v -240 -256 0
v -224 -256 0
v -208 -256 0
v -192 -256 0
v -176 -256 0
v -160 -256 0
v -144 -256 0
v -128 -256 0
v -112 -256 0
v -96 -256 0
v -80 -256 0
v -64 -256 0
v -48 -256 0
v -32 -256 0
v -16 -256 0
v 0 -256 0

# Texture cooridinates (Count = 148)
vt 0.08512207 0.5801221
vt 0.1648779 0.5801221
vt 0.1648779 0.659878
vt 0.08512207 0.659878
vt 0.08512207 0.6651221
vt 0.1648779 0.6651221
vt 0.1648779 0.7448779
vt 0.08512207 0.7448779
vt 0.0001220703 0.5801221
vt 0.07987793 0.5801221
vt 0.07987793 0.659878
vt 0.0001220703 0.659878
vt 0.1701221 0.5801221
vt 0.2498779 0.5801221
vt 0.2498779 0.659878
vt 0.1701221 0.659878
vt 0.08512207 0.9201221
vt 0.1648779 0.9201221
vt 0.1648779 0.9998779
vt 0.08512207 0.9998779
vt 0.08512207 0.835122
vt 0.1648779 0.835122
vt 0.1648779 0.914878
vt 0.08512207 0.914878
vt 0.08512207 0.7501221
vt 0.1648779 0.7501221
vt 0.1648779 0.8298779
vt 0.08512207 0.8298779
vt 0.0001220703 0.4101221
vt 0.07987793 0.4101221
vt 0.07987793 0.4898779
vt 0.0001220703 0.4898779
vt 0.08512207 0.4951221
vt 0.1648779 0.4951221
vt 0.1648779 0.5748779
vt 0.08512207 0.5748779
vt 0.0001220703 0.4951221
vt 0.07987793 0.4951221
vt 0.07987793 0.5748779
vt 0.0001220703 0.5748779
vt 0.7441046 0.1115975
vt 0.7788714 0.1115975
vt 0.7788714 0.1638124
vt 0.7441046 0.1638124
vt 0.7069054 0.2788106
vt 0.7416722 0.2788106
vt 0.7416722 0.3310255
vt 0.7069054 0.3310255
vt 0.7441046 0.05585977
vt 0.7788714 0.05585977
vt 0.7788714 0.1080747
vt 0.7441046 0.1080747
vt 0.7813037 0.1673352
vt 0.8160705 0.1673352
vt 0.8160705 0.2195501
vt 0.7813037 0.2195501
vt 0.7441046 0.1673352
vt 0.7788714 0.1673352
vt 0.7788714 0.2195501
vt 0.7441046 0.2195501
vt 0.8185028 0.7247123
vt 0.8532696 0.7247123
vt 0.8532696 0.7769271
vt 0.8185028 0.7769271
vt 0.0001220703 0.7804499
vt 0.03488887 0.7804499
vt 0.03488887 0.8326648
vt 0.0001220703 0.8326648
vt 0.5953081 0.9476631
vt 0.6300749 0.9476631
vt 0.6300749 0.9998779
vt 0.5953081 0.9998779
vt 0.07452032 0.8919253
vt 0.1092871 0.8919253
vt 0.1092871 0.9441402
vt 0.07452032 0.9441402
vt 0.0373212 0.8919253
vt 0.072088 0.8919253
vt 0.072088 0.9441402
vt 0.0373212 0.9441402
vt 0.0001220703 0.8919253
vt 0.03488887 0.8919253
vt 0.03488887 0.9441402
vt 0.0001220703 0.9441402
vt 0.07452032 0.9476631
vt 0.1092871 0.9476631
vt 0.1092871 0.9998779
vt 0.07452032 0.9998779
vt 0.0001220703 0.9476631
vt 0.03488887 0.9476631
vt 0.03488887 0.9998779
vt 0.0001220703 0.9998779
vt 0.0373212 0.6689745
vt 0.072088 0.6689745
vt 0.072088 0.7211894
vt 0.0373212 0.7211894
vt 0.4251221 0.6651221
vt 0.5048779 0.6651221
vt 0.5048779 0.7448779
vt 0.4251221 0.7448779
vt 0.3401221 0.6651221
vt 0.4198779 0.6651221
vt 0.4198779 0.7448779
vt 0.3401221 0.7448779
vt 0.2551221 0.6651221
vt 0.3348779 0.6651221
vt 0.3348779 0.7448779
vt 0.2551221 0.7448779
vt 0.4251221 0.4951221
vt 0.5048779 0.4951221
vt 0.5048779 0.5748779
vt 0.4251221 0.5748779
vt 0.3401221 0.4951221
vt 0.4198779 0.4951221
vt 0.4198779 0.5748779
vt 0.3401221 0.5748779
vt 0.2551221 0.4951221
vt 0.3348779 0.4951221
vt 0.3348779 0.5748779
vt 0.2551221 0.5748779
vt 0.5621055 0.9697038
vt 0.5783903 0.9697038
vt 0.5783903 0.9998779
vt 0.5621055 0.9998779
vt 0.6801221 0.4101221
vt 0.7598779 0.4101221
vt 0.7598779 0.4898779
vt 0.6801221 0.4898779
vt 0.4251221 0.4101221
vt 0.5048779 0.4101221
vt 0.5048779 0.4898779
vt 0.4251221 0.4898779
vt 0.5951221 0.4101221
vt 0.6748779 0.4101221
vt 0.6748779 0.4898779
vt 0.5951221 0.4898779
vt 0.3401221 0.4101221
vt 0.4198779 0.4101221
vt 0.4198779 0.4898779
vt 0.3401221 0.4898779
vt 0.5101221 0.4101221
vt 0.5898779 0.4101221
vt 0.5898779 0.4898779
vt 0.5101221 0.4898779
vt 0.2551221 0.4101221
vt 0.3348779 0.4101221
vt 0.3348779 0.4898779
vt 0.2551221 0.4898779

# Normal
vn 0 0 -1

# Groups (Count = 3)

g mesh_0001
f 1/1/1 2/2/1 3/3/1 4/4/1
f 5/5/1 1/6/1 4/7/1 6/8/1
f 7/5/1 5/6/1 6/7/1 8/8/1
f 9/5/1 7/6/1 8/7/1 10/8/1
f 11/5/1 9/6/1 10/7/1 12/8/1
f 13/5/1 11/6/1 12/7/1 14/8/1
f 15/5/1 13/6/1 14/7/1 16/8/1
f 17/5/1 15/6/1 16/7/1 18/8/1
f 19/5/1 17/6/1 18/7/1 20/8/1
f 21/5/1 19/6/1 20/7/1 22/8/1
f 23/5/1 21/6/1 22/7/1 24/8/1
f 25/5/1 23/6/1 24/7/1 26/8/1
f 27/5/1 25/6/1 26/7/1 28/8/1
f 29/5/1 27/6/1 28/7/1 30/8/1
f 31/5/1 29/6/1 30/7/1 32/8/1
f 33/5/1 31/6/1 32/7/1 34/8/1
f 35/5/1 33/6/1 34/7/1 36/8/1
f 37/5/1 35/6/1 36/7/1 38/8/1
f 39/5/1 37/6/1 38/7/1 40/8/1
f 41/9/1 39/10/1 40/11/1 42/12/1
f 43/13/1 44/14/1 2/15/1 1/16/1
f 45/17/1 43/18/1 1/19/1 5/20/1
f 46/17/1 45/18/1 5/19/1 7/20/1
f 47/17/1 46/18/1 7/19/1 9/20/1
f 48/17/1 47/18/1 9/19/1 11/20/1
f 49/17/1 48/18/1 11/19/1 13/20/1
f 50/17/1 49/18/1 13/19/1 15/20/1
f 51/17/1 50/18/1 15/19/1 17/20/1
f 52/17/1 51/18/1 17/19/1 19/20/1
f 53/17/1 52/18/1 19/19/1 21/20/1
f 54/17/1 53/18/1 21/19/1 23/20/1
f 55/17/1 54/18/1 23/19/1 25/20/1
f 56/17/1 55/18/1 25/19/1 27/20/1
f 57/17/1 56/18/1 27/19/1 29/20/1
f 58/17/1 57/18/1 29/19/1 31/20/1
f 59/17/1 58/18/1 31/19/1 33/20/1
f 60/17/1 59/18/1 33/19/1 35/20/1
f 61/17/1 60/18/1 35/19/1 37/20/1
f 62/17/1 61/18/1 37/19/1 39/20/1
f 63/13/1 62/14/1 39/15/1 41/16/1
f 64/13/1 65/14/1 44/15/1 43/16/1
f 66/21/1 64/22/1 43/23/1 45/24/1
f 67/21/1 66/22/1 45/23/1 46/24/1
f 68/21/1 67/22/1 46/23/1 47/24/1
f 69/21/1 68/22/1 47/23/1 48/24/1
f 70/21/1 69/22/1 48/23/1 49/24/1
f 71/21/1 70/22/1 49/23/1 50/24/1
f 72/21/1 71/22/1 50/23/1 51/24/1
f 73/21/1 72/22/1 51/23/1 52/24/1
f 74/21/1 73/22/1 52/23/1 53/24/1
f 75/21/1 74/22/1 53/23/1 54/24/1
f 76/21/1 75/22/1 54/23/1 55/24/1
f 77/21/1 76/22/1 55/23/1 56/24/1
f 78/21/1 77/22/1 56/23/1 57/24/1
f 79/21/1 78/22/1 57/23/1 58/24/1
f 80/21/1 79/22/1 58/23/1 59/24/1
f 81/21/1 80/22/1 59/23/1 60/24/1
f 82/21/1 81/22/1 60/23/1 61/24/1
f 83/21/1 82/22/1 61/23/1 62/24/1
f 84/13/1 83/14/1 62/15/1 63/16/1
f 85/13/1 86/14/1 65/15/1 64/16/1
f 87/21/1 85/22/1 64/23/1 66/24/1
f 88/21/1 87/22/1 66/23/1 67/24/1
f 89/21/1 88/22/1 67/23/1 68/24/1
f 90/21/1 89/22/1 68/23/1 69/24/1
f 91/21/1 90/22/1 69/23/1 70/24/1
f 92/21/1 91/22/1 70/23/1 71/24/1
f 93/21/1 92/22/1 71/23/1 72/24/1
f 94/21/1 93/22/1 72/23/1 73/24/1
f 95/21/1 94/22/1 73/23/1 74/24/1
f 96/21/1 95/22/1 74/23/1 75/24/1
f 97/21/1 96/22/1 75/23/1 76/24/1
f 98/21/1 97/22/1 76/23/1 77/24/1
f 99/21/1 98/22/1 77/23/1 78/24/1
f 100/21/1 99/22/1 78/23/1 79/24/1
f 101/21/1 100/22/1 79/23/1 80/24/1
f 102/21/1 101/22/1 80/23/1 81/24/1
f 103/21/1 102/22/1 81/23/1 82/24/1
f 104/21/1 103/22/1 82/23/1 83/24/1
f 105/13/1 104/14/1 83/15/1 84/16/1
f 106/13/1 107/14/1 86/15/1 85/16/1
f 108/25/1 106/26/1 85/27/1 87/28/1
f 109/25/1 108/26/1 87/27/1 88/28/1
f 110/25/1 109/26/1 88/27/1 89/28/1
f 111/25/1 110/26/1 89/27/1 90/28/1
f 112/25/1 111/26/1 90/27/1 91/28/1
f 113/25/1 112/26/1 91/27/1 92/28/1
f 114/25/1 113/26/1 92/27/1 93/28/1
f 115/25/1 114/26/1 93/27/1 94/28/1
f 116/25/1 115/26/1 94/27/1 95/28/1
f 117/25/1 116/26/1 95/27/1 96/28/1
f 118/25/1 117/26/1 96/27/1 97/28/1
f 119/25/1 118/26/1 97/27/1 98/28/1
f 120/25/1 119/26/1 98/27/1 99/28/1
f 121/25/1 120/26/1 99/27/1 100/28/1
f 122/25/1 121/26/1 100/27/1 101/28/1
f 123/25/1 122/26/1 101/27/1 102/28/1
f 124/25/1 123/26/1 102/27/1 103/28/1
f 125/25/1 124/26/1 103/27/1 104/28/1
f 126/13/1 125/14/1 104/15/1 105/16/1
f 127/13/1 128/14/1 107/15/1 106/16/1
f 129/29/1 127/30/1 106/31/1 108/32/1
f 130/29/1 129/30/1 108/31/1 109/32/1
f 131/29/1 130/30/1 109/31/1 110/32/1
f 132/29/1 131/30/1 110/31/1 111/32/1
f 133/29/1 132/30/1 111/31/1 112/32/1
f 134/29/1 133/30/1 112/31/1 113/32/1
f 135/29/1 134/30/1 113/31/1 114/32/1
f 136/29/1 135/30/1 114/31/1 115/32/1
f 137/29/1 136/30/1 115/31/1 116/32/1
f 138/29/1 137/30/1 116/31/1 117/32/1
f 139/29/1 138/30/1 117/31/1 118/32/1
f 140/29/1 139/30/1 118/31/1 119/32/1
f 141/29/1 140/30/1 119/31/1 120/32/1
f 142/29/1 141/30/1 120/31/1 121/32/1
f 143/29/1 142/30/1 121/31/1 122/32/1
f 144/29/1 143/30/1 122/31/1 123/32/1
f 145/29/1 144/30/1 123/31/1 124/32/1
f 146/29/1 145/30/1 124/31/1 125/32/1
f 147/13/1 146/14/1 125/15/1 126/16/1
f 148/13/1 149/14/1 128/15/1 127/16/1
f 150/29/1 148/30/1 127/31/1 129/32/1
f 151/29/1 150/30/1 129/31/1 130/32/1
f 152/29/1 151/30/1 130/31/1 131/32/1
f 153/29/1 152/30/1 131/31/1 132/32/1
f 154/29/1 153/30/1 132/31/1 133/32/1
f 155/29/1 154/30/1 133/31/1 134/32/1
f 156/29/1 155/30/1 134/31/1 135/32/1
f 157/29/1 156/30/1 135/31/1 136/32/1
f 158/29/1 157/30/1 136/31/1 137/32/1
f 159/29/1 158/30/1 137/31/1 138/32/1
f 160/29/1 159/30/1 138/31/1 139/32/1
f 161/29/1 160/30/1 139/31/1 140/32/1
f 162/29/1 161/30/1 140/31/1 141/32/1
f 163/29/1 162/30/1 141/31/1 142/32/1
f 164/29/1 163/30/1 142/31/1 143/32/1
f 165/29/1 164/30/1 143/31/1 144/32/1
f 166/29/1 165/30/1 144/31/1 145/32/1
f 167/29/1 166/30/1 145/31/1 146/32/1
f 168/13/1 167/14/1 146/15/1 147/16/1
f 169/13/1 170/14/1 149/15/1 148/16/1
f 171/29/1 169/30/1 148/31/1 150/32/1
f 172/29/1 171/30/1 150/31/1 151/32/1
f 173/29/1 172/30/1 151/31/1 152/32/1
f 174/29/1 173/30/1 152/31/1 153/32/1
f 175/29/1 174/30/1 153/31/1 154/32/1
f 176/29/1 175/30/1 154/31/1 155/32/1
f 177/29/1 176/30/1 155/31/1 156/32/1
f 178/29/1 177/30/1 156/31/1 157/32/1
f 179/29/1 178/30/1 157/31/1 158/32/1
f 180/29/1 179/30/1 158/31/1 159/32/1
f 181/29/1 180/30/1 159/31/1 160/32/1
f 182/29/1 181/30/1 160/31/1 161/32/1
f 183/29/1 182/30/1 161/31/1 162/32/1
f 184/29/1 183/30/1 162/31/1 163/32/1
f 185/29/1 184/30/1 163/31/1 164/32/1
f 186/29/1 185/30/1 164/31/1 165/32/1
f 187/29/1 186/30/1 165/31/1 166/32/1
f 188/29/1 187/30/1 166/31/1 167/32/1
f 189/13/1 188/14/1 167/15/1 168/16/1
f 190/13/1 191/14/1 170/15/1 169/16/1
f 192/29/1 190/30/1 169/31/1 171/32/1
f 193/29/1 192/30/1 171/31/1 172/32/1
f 194/29/1 193/30/1 172/31/1 173/32/1
f 195/29/1 194/30/1 173/31/1 174/32/1
f 196/29/1 195/30/1 174/31/1 175/32/1
f 197/29/1 196/30/1 175/31/1 176/32/1
f 198/29/1 197/30/1 176/31/1 177/32/1
f 199/29/1 198/30/1 177/31/1 178/32/1
f 200/29/1 199/30/1 178/31/1 179/32/1
f 201/29/1 200/30/1 179/31/1 180/32/1
f 202/29/1 201/30/1 180/31/1 181/32/1
f 203/29/1 202/30/1 181/31/1 182/32/1
f 204/29/1 203/30/1 182/31/1 183/32/1
f 205/29/1 204/30/1 183/31/1 184/32/1
f 206/29/1 205/30/1 184/31/1 185/32/1
f 207/29/1 206/30/1 185/31/1 186/32/1
f 208/29/1 207/30/1 186/31/1 187/32/1
f 209/29/1 208/30/1 187/31/1 188/32/1
f 210/13/1 209/14/1 188/15/1 189/16/1
f 211/13/1 212/14/1 191/15/1 190/16/1
f 213/29/1 211/30/1 190/31/1 192/32/1
f 214/29/1 213/30/1 192/31/1 193/32/1
f 215/29/1 214/30/1 193/31/1 194/32/1
f 216/29/1 215/30/1 194/31/1 195/32/1
f 217/29/1 216/30/1 195/31/1 196/32/1
f 218/29/1 217/30/1 196/31/1 197/32/1
f 219/29/1 218/30/1 197/31/1 198/32/1
f 220/29/1 219/30/1 198/31/1 199/32/1
f 221/29/1 220/30/1 199/31/1 200/32/1
f 222/29/1 221/30/1 200/31/1 201/32/1
f 223/29/1 222/30/1 201/31/1 202/32/1
f 224/29/1 223/30/1 202/31/1 203/32/1
f 225/29/1 224/30/1 203/31/1 204/32/1
f 226/29/1 225/30/1 204/31/1 205/32/1
f 227/29/1 226/30/1 205/31/1 206/32/1
f 228/29/1 227/30/1 206/31/1 207/32/1
f 229/29/1 228/30/1 207/31/1 208/32/1
f 230/29/1 229/30/1 208/31/1 209/32/1
f 231/13/1 230/14/1 209/15/1 210/16/1
f 232/13/1 233/14/1 212/15/1 211/16/1
f 234/29/1 232/30/1 211/31/1 213/32/1
f 235/29/1 234/30/1 213/31/1 214/32/1
f 236/29/1 235/30/1 214/31/1 215/32/1
f 237/29/1 236/30/1 215/31/1 216/32/1
f 238/29/1 237/30/1 216/31/1 217/32/1
f 239/29/1 238/30/1 217/31/1 218/32/1
f 240/29/1 239/30/1 218/31/1 219/32/1
f 241/29/1 240/30/1 219/31/1 220/32/1
f 242/29/1 241/30/1 220/31/1 221/32/1
f 243/29/1 242/30/1 221/31/1 222/32/1
f 244/29/1 243/30/1 222/31/1 223/32/1
f 245/29/1 244/30/1 223/31/1 224/32/1
f 246/29/1 245/30/1 224/31/1 225/32/1
f 247/29/1 246/30/1 225/31/1 226/32/1
f 248/29/1 247/30/1 226/31/1 227/32/1
f 249/29/1 248/30/1 227/31/1 228/32/1
f 250/29/1 249/30/1 228/31/1 229/32/1
f 251/29/1 250/30/1 229/31/1 230/32/1
f 252/13/1 251/14/1 230/15/1 231/16/1
f 253/13/1 254/14/1 233/15/1 232/16/1
f 255/29/1 253/30/1 232/31/1 234/32/1
f 256/29/1 255/30/1 234/31/1 235/32/1
f 257/29/1 256/30/1 235/31/1 236/32/1
f 258/29/1 257/30/1 236/31/1 237/32/1
f 259/29/1 258/30/1 237/31/1 238/32/1
f 260/29/1 259/30/1 238/31/1 239/32/1
f 261/29/1 260/30/1 239/31/1 240/32/1
f 262/29/1 261/30/1 240/31/1 241/32/1
f 263/29/1 262/30/1 241/31/1 242/32/1
f 264/29/1 263/30/1 242/31/1 243/32/1
f 265/29/1 264/30/1 243/31/1 244/32/1
f 266/29/1 265/30/1 244/31/1 245/32/1
f 267/29/1 266/30/1 245/31/1 246/32/1
f 268/29/1 267/30/1 246/31/1 247/32/1
f 269/29/1 268/30/1 247/31/1 248/32/1
f 270/29/1 269/30/1 248/31/1 249/32/1
f 271/29/1 270/30/1 249/31/1 250/32/1
f 272/29/1 271/30/1 250/31/1 251/32/1
f 273/13/1 272/14/1 251/15/1 252/16/1
f 274/13/1 275/14/1 254/15/1 253/16/1
f 276/29/1 274/30/1 253/31/1 255/32/1
f 277/29/1 276/30/1 255/31/1 256/32/1
f 278/29/1 277/30/1 256/31/1 257/32/1
f 279/29/1 278/30/1 257/31/1 258/32/1
f 280/29/1 279/30/1 258/31/1 259/32/1
f 281/29/1 280/30/1 259/31/1 260/32/1
f 282/29/1 281/30/1 260/31/1 261/32/1
f 283/29/1 282/30/1 261/31/1 262/32/1
f 284/29/1 283/30/1 262/31/1 263/32/1
f 285/29/1 284/30/1 263/31/1 264/32/1
f 286/29/1 285/30/1 264/31/1 265/32/1
f 287/29/1 286/30/1 265/31/1 266/32/1
f 288/29/1 287/30/1 266/31/1 267/32/1
f 289/29/1 288/30/1 267/31/1 268/32/1
f 290/29/1 289/30/1 268/31/1 269/32/1
f 291/29/1 290/30/1 269/31/1 270/32/1
f 292/29/1 291/30/1 270/31/1 271/32/1
f 293/29/1 292/30/1 271/31/1 272/32/1
f 294/13/1 293/14/1 272/15/1 273/16/1
f 295/13/1 296/14/1 275/15/1 274/16/1
f 297/29/1 295/30/1 274/31/1 276/32/1
f 298/29/1 297/30/1 276/31/1 277/32/1
f 299/29/1 298/30/1 277/31/1 278/32/1
f 300/29/1 299/30/1 278/31/1 279/32/1
f 301/29/1 300/30/1 279/31/1 280/32/1
f 302/29/1 301/30/1 280/31/1 281/32/1
f 303/29/1 302/30/1 281/31/1 282/32/1
f 304/29/1 303/30/1 282/31/1 283/32/1
f 305/29/1 304/30/1 283/31/1 284/32/1
f 306/29/1 305/30/1 284/31/1 285/32/1
f 307/29/1 306/30/1 285/31/1 286/32/1
f 308/29/1 307/30/1 286/31/1 287/32/1
f 309/29/1 308/30/1 287/31/1 288/32/1
f 310/29/1 309/30/1 288/31/1 289/32/1
f 311/29/1 310/30/1 289/31/1 290/32/1
f 312/29/1 311/30/1 290/31/1 291/32/1
f 313/29/1 312/30/1 291/31/1 292/32/1
f 314/29/1 313/30/1 292/31/1 293/32/1
f 315/13/1 314/14/1 293/15/1 294/16/1
f 316/13/1 317/14/1 296/15/1 295/16/1
f 318/29/1 316/30/1 295/31/1 297/32/1
f 319/29/1 318/30/1 297/31/1 298/32/1
f 320/29/1 319/30/1 298/31/1 299/32/1
f 321/29/1 320/30/1 299/31/1 300/32/1
f 322/29/1 321/30/1 300/31/1 301/32/1
f 323/29/1 322/30/1 301/31/1 302/32/1
f 324/29/1 323/30/1 302/31/1 303/32/1
f 325/29/1 324/30/1 303/31/1 304/32/1
f 326/29/1 325/30/1 304/31/1 305/32/1
f 327/29/1 326/30/1 305/31/1 306/32/1
f 328/29/1 327/30/1 306/31/1 307/32/1
f 329/29/1 328/30/1 307/31/1 308/32/1
f 330/29/1 329/30/1 308/31/1 309/32/1
f 331/29/1 330/30/1 309/31/1 310/32/1
f 332/29/1 331/30/1 310/31/1 311/32/1
f 333/29/1 332/30/1 311/31/1 312/32/1
f 334/29/1 333/30/1 312/31/1 313/32/1
f 335/29/1 334/30/1 313/31/1 314/32/1
f 336/13/1 335/14/1 314/15/1 315/16/1
f 337/33/1 338/34/1 317/35/1 316/36/1
f 339/5/1 337/6/1 316/7/1 318/8/1
f 340/5/1 339/6/1 318/7/1 319/8/1
f 341/5/1 340/6/1 319/7/1 320/8/1
f 342/5/1 341/6/1 320/7/1 321/8/1
f 343/5/1 342/6/1 321/7/1 322/8/1
f 344/5/1 343/6/1 322/7/1 323/8/1
f 345/5/1 344/6/1 323/7/1 324/8/1
f 346/5/1 345/6/1 324/7/1 325/8/1
f 347/5/1 346/6/1 325/7/1 326/8/1
f 348/5/1 347/6/1 326/7/1 327/8/1
f 349/5/1 348/6/1 327/7/1 328/8/1
f 350/5/1 349/6/1 328/7/1 329/8/1
f 351/5/1 350/6/1 329/7/1 330/8/1
f 352/5/1 351/6/1 330/7/1 331/8/1
f 353/5/1 352/6/1 331/7/1 332/8/1
f 354/5/1 353/6/1 332/7/1 333/8/1
f 355/5/1 354/6/1 333/7/1 334/8/1
f 356/5/1 355/6/1 334/7/1 335/8/1
f 357/37/1 356/38/1 335/39/1 336/40/1

g mesh_0002
f 68/41/1 67/42/1 46/43/1 47/44/1
f 80/45/1 79/46/1 58/47/1 59/48/1
f 89/49/1 88/50/1 67/51/1 68/52/1
f 101/53/1 100/54/1 79/55/1 80/56/1
f 102/57/1 101/58/1 80/59/1 81/60/1
f 129/61/1 127/62/1 106/63/1 108/64/1
f 143/65/1 142/66/1 121/67/1 122/68/1
f 146/69/1 145/70/1 124/71/1 125/72/1
f 163/73/1 162/74/1 141/75/1 142/76/1
f 164/77/1 163/78/1 142/79/1 143/80/1
f 165/81/1 164/82/1 143/83/1 144/84/1
f 194/85/1 193/86/1 172/87/1 173/88/1
f 195/89/1 194/90/1 173/91/1 174/92/1
f 198/85/1 197/86/1 176/87/1 177/88/1
f 199/89/1 198/90/1 177/91/1 178/92/1
f 202/85/1 201/86/1 180/87/1 181/88/1
f 203/89/1 202/90/1 181/91/1 182/92/1
f 206/85/1 205/86/1 184/87/1 185/88/1
f 207/89/1 206/90/1 185/91/1 186/92/1
f 215/93/1 214/94/1 193/95/1 194/96/1
f 216/93/1 215/94/1 194/95/1 195/96/1
f 219/93/1 218/94/1 197/95/1 198/96/1
f 220/93/1 219/94/1 198/95/1 199/96/1
f 223/93/1 222/94/1 201/95/1 202/96/1
f 224/93/1 223/94/1 202/95/1 203/96/1
f 227/93/1 226/94/1 205/95/1 206/96/1
f 228/93/1 227/94/1 206/95/1 207/96/1
f 278/85/1 277/86/1 256/87/1 257/88/1
f 279/89/1 278/90/1 257/91/1 258/92/1
f 282/85/1 281/86/1 260/87/1 261/88/1
f 283/89/1 282/90/1 261/91/1 262/92/1
f 286/85/1 285/86/1 264/87/1 265/88/1
f 287/89/1 286/90/1 265/91/1 266/92/1
f 290/85/1 289/86/1 268/87/1 269/88/1
f 291/89/1 290/90/1 269/91/1 270/92/1
f 299/93/1 298/94/1 277/95/1 278/96/1
f 300/93/1 299/94/1 278/95/1 279/96/1
f 303/93/1 302/94/1 281/95/1 282/96/1
f 304/93/1 303/94/1 282/95/1 283/96/1
f 307/93/1 306/94/1 285/95/1 286/96/1
f 308/93/1 307/94/1 286/95/1 287/96/1
f 311/93/1 310/94/1 289/95/1 290/96/1
f 312/93/1 311/94/1 290/95/1 291/96/1

g mesh_0003
f 71/97/1 70/98/1 49/99/1 50/100/1
f 72/101/1 71/102/1 50/103/1 51/104/1
f 73/101/1 72/102/1 51/103/1 52/104/1
f 74/101/1 73/102/1 52/103/1 53/104/1
f 75/101/1 74/102/1 53/103/1 54/104/1
f 76/101/1 75/102/1 54/103/1 55/104/1
f 77/101/1 76/102/1 55/103/1 56/104/1
f 78/105/1 77/106/1 56/107/1 57/108/1
f 92/109/1 91/110/1 70/111/1 71/112/1
f 93/113/1 92/114/1 71/115/1 72/116/1
f 94/113/1 93/114/1 72/115/1 73/116/1
f 95/113/1 94/114/1 73/115/1 74/116/1
f 96/113/1 95/114/1 74/115/1 75/116/1
f 97/113/1 96/114/1 75/115/1 76/116/1
f 98/113/1 97/114/1 76/115/1 77/116/1
f 99/117/1 98/118/1 77/119/1 78/120/1

g mesh_0004
f 348/121/1 347/122/1 326/123/1 327/124/1

g mesh_0005
f 165/125/1 164/126/1 143/127/1 144/128/1
f 195/129/1 194/130/1 173/131/1 174/132/1
f 202/133/1 201/134/1 180/135/1 181/136/1
f 207/137/1 206/138/1 185/139/1 186/140/1
f 279/141/1 278/142/1 257/143/1 258/144/1
f 283/133/1 282/134/1 261/135/1 262/136/1
f 286/145/1 285/146/1 264/147/1 265/148/1
f 287/129/1 286/130/1 265/131/1 266/132/1

