# Wavefront OBJ file automatically generated by Tiled2Unity

# Vertices (Count = 253)
v -336 -16 0
v -352 -16 0
v -352 0 0
v -336 0 0
v -320 -16 0
v -320 0 0
v -304 -16 0
v -304 0 0
v -288 -16 0
v -288 0 0
v -272 -16 0
v -272 0 0
v -256 -16 0
v -256 0 0
v -240 -16 0
v -240 0 0
v -224 -16 0
v -224 0 0
v -208 -16 0
v -208 0 0
v -192 -16 0
v -192 0 0
v -176 -16 0
v -176 0 0
v -160 -16 0
v -160 0 0
v -144 -16 0
v -144 0 0
v -128 -16 0
v -128 0 0
v -112 -16 0
v -112 0 0
v -96 -16 0
v -96 0 0
v -80 -16 0
v -80 0 0
v -64 -16 0
v -64 0 0
v -48 -16 0
v -48 0 0
v -32 -16 0
v -32 0 0
v -16 -16 0
v -16 0 0
v 0 -16 0
v 0 0 0
v -336 -32 0
v -352 -32 0
v -320 -32 0
v -304 -32 0
v -288 -32 0
v -272 -32 0
v -256 -32 0
v -240 -32 0
v -224 -32 0
v -208 -32 0
v -192 -32 0
v -176 -32 0
v -160 -32 0
v -144 -32 0
v -128 -32 0
v -112 -32 0
v -96 -32 0
v -80 -32 0
v -64 -32 0
v -48 -32 0
v -32 -32 0
v -16 -32 0
v 0 -32 0
v -336 -48 0
v -352 -48 0
v -320 -48 0
v -304 -48 0
v -288 -48 0
v -272 -48 0
v -256 -48 0
v -240 -48 0
v -224 -48 0
v -208 -48 0
v -192 -48 0
v -176 -48 0
v -160 -48 0
v -144 -48 0
v -128 -48 0
v -112 -48 0
v -96 -48 0
v -80 -48 0
v -64 -48 0
v -48 -48 0
v -32 -48 0
v -16 -48 0
v 0 -48 0
v -336 -64 0
v -352 -64 0
v -320 -64 0
v -304 -64 0
v -288 -64 0
v -272 -64 0
v -256 -64 0
v -240 -64 0
v -224 -64 0
v -208 -64 0
v -192 -64 0
v -176 -64 0
v -160 -64 0
v -144 -64 0
v -128 -64 0
v -112 -64 0
v -96 -64 0
v -80 -64 0
v -64 -64 0
v -48 -64 0
v -32 -64 0
v -16 -64 0
v 0 -64 0
v -336 -80 0
v -352 -80 0
v -320 -80 0
v -304 -80 0
v -288 -80 0
v -272 -80 0
v -256 -80 0
v -240 -80 0
v -224 -80 0
v -208 -80 0
v -192 -80 0
v -176 -80 0
v -160 -80 0
v -144 -80 0
v -128 -80 0
v -112 -80 0
v -96 -80 0
v -80 -80 0
v -64 -80 0
v -48 -80 0
v -32 -80 0
v -16 -80 0
v 0 -80 0
v -336 -96 0
v -352 -96 0
v -320 -96 0
v -304 -96 0
v -288 -96 0
v -272 -96 0
v -256 -96 0
v -240 -96 0
v -224 -96 0
v -208 -96 0
v -192 -96 0
v -176 -96 0
v -160 -96 0
v -144 -96 0
v -128 -96 0
v -112 -96 0
v -96 -96 0
v -80 -96 0
v -64 -96 0
v -48 -96 0
v -32 -96 0
v -16 -96 0
v 0 -96 0
v -336 -112 0
v -352 -112 0
v -320 -112 0
v -304 -112 0
v -288 -112 0
v -272 -112 0
v -256 -112 0
v -240 -112 0
v -224 -112 0
v -208 -112 0
v -192 -112 0
v -176 -112 0
v -160 -112 0
v -144 -112 0
v -128 -112 0
v -112 -112 0
v -96 -112 0
v -80 -112 0
v -64 -112 0
v -48 -112 0
v -32 -112 0
v -16 -112 0
v 0 -112 0
v -336 -128 0
v -352 -128 0
v -320 -128 0
v -304 -128 0
v -288 -128 0
v -272 -128 0
v -256 -128 0
v -240 -128 0
v -224 -128 0
v -208 -128 0
v -192 -128 0
v -176 -128 0
v -160 -128 0
v -144 -128 0
v -128 -128 0
v -112 -128 0
v -96 -128 0
v -80 -128 0
v -64 -128 0
v -48 -128 0
v -32 -128 0
v -16 -128 0
v 0 -128 0
v -336 -144 0
v -352 -144 0
v -320 -144 0
v -304 -144 0
v -288 -144 0
v -272 -144 0
v -256 -144 0
v -240 -144 0
v -224 -144 0
v -208 -144 0
v -192 -144 0
v -176 -144 0
v -160 -144 0
v -144 -144 0
v -128 -144 0
v -112 -144 0
v -96 -144 0
v -80 -144 0
v -64 -144 0
v -48 -144 0
v -32 -144 0
v -16 -144 0
v 0 -144 0
v -336 -160 0
v -352 -160 0
v -320 -160 0
v -304 -160 0
v -288 -160 0
v -272 -160 0
v -256 -160 0
v -240 -160 0
v -224 -160 0
v -208 -160 0
v -192 -160 0
v -176 -160 0
v -160 -160 0
v -144 -160 0
v -128 -160 0
v -112 -160 0
v -96 -160 0
v -80 -160 0
v -64 -160 0
v -48 -160 0
v -32 -160 0
v -16 -160 0
v 0 -160 0

# Texture cooridinates (Count = 108)
vt 0.2986758 0.5818711
vt 0.3149606 0.5818711
vt 0.3149606 0.6120452
vt 0.2986758 0.6120452
vt 0.2459898 0.5818711
vt 0.2622746 0.5818711
vt 0.2622746 0.6120452
vt 0.2459898 0.6120452
vt 0.2811138 0.5818711
vt 0.2973986 0.5818711
vt 0.2973986 0.6120452
vt 0.2811138 0.6120452
vt 0.2635518 0.5495517
vt 0.2798366 0.5495517
vt 0.2798366 0.5797259
vt 0.2635518 0.5797259
vt 0.3162378 0.4525936
vt 0.3325226 0.4525936
vt 0.3325226 0.4827677
vt 0.3162378 0.4827677
vt 0.3162378 0.4849129
vt 0.3325226 0.4849129
vt 0.3325226 0.5150871
vt 0.3162378 0.5150871
vt 0.2284279 0.4849129
vt 0.2447126 0.4849129
vt 0.2447126 0.5150871
vt 0.2284279 0.5150871
vt 0.1581799 0.9050651
vt 0.1744647 0.9050651
vt 0.1744647 0.9352391
vt 0.1581799 0.9352391
vt 0.123056 0.8404263
vt 0.1393407 0.8404263
vt 0.1393407 0.8706003
vt 0.123056 0.8706003
vt 0.1581799 0.8404263
vt 0.1744647 0.8404263
vt 0.1744647 0.8706003
vt 0.1581799 0.8706003
vt 0.1406179 0.8404263
vt 0.1569027 0.8404263
vt 0.1569027 0.8706003
vt 0.1406179 0.8706003
vt 0.2986758 0.5495517
vt 0.3149606 0.5495517
vt 0.3149606 0.5797259
vt 0.2986758 0.5797259
vt 0.2811138 0.5495517
vt 0.2973986 0.5495517
vt 0.2973986 0.5797259
vt 0.2811138 0.5797259
vt 0.5621055 0.9697038
vt 0.5783903 0.9697038
vt 0.5783903 0.9998779
vt 0.5621055 0.9998779
vt 0.6697063 0.2788106
vt 0.7044731 0.2788106
vt 0.7044731 0.3310255
vt 0.6697063 0.3310255
vt 0.6697063 0.1115975
vt 0.7044731 0.1115975
vt 0.7044731 0.1638124
vt 0.6697063 0.1638124
vt 0.6325072 0.1115975
vt 0.667274 0.1115975
vt 0.667274 0.1638124
vt 0.6325072 0.1638124
vt 0.5953081 0.1115975
vt 0.6300749 0.1115975
vt 0.6300749 0.1638124
vt 0.5953081 0.1638124
vt 0.7813037 0.2788106
vt 0.8160705 0.2788106
vt 0.8160705 0.3310255
vt 0.7813037 0.3310255
vt 0.7441046 0.2788106
vt 0.7788714 0.2788106
vt 0.7788714 0.3310255
vt 0.7441046 0.3310255
vt 0.6697063 0.05585977
vt 0.7044731 0.05585977
vt 0.7044731 0.1080747
vt 0.6697063 0.1080747
vt 0.6325072 0.05585977
vt 0.667274 0.05585977
vt 0.667274 0.1080747
vt 0.6325072 0.1080747
vt 0.5953081 0.05585977
vt 0.6300749 0.05585977
vt 0.6300749 0.1080747
vt 0.5953081 0.1080747
vt 0.7069054 0.2230729
vt 0.7416722 0.2230729
vt 0.7416722 0.2752878
vt 0.7069054 0.2752878
vt 0.6325072 0.9476631
vt 0.667274 0.9476631
vt 0.667274 0.9998779
vt 0.6325072 0.9998779
vt 0.5953081 0.9476631
vt 0.6300749 0.9476631
vt 0.6300749 0.9998779
vt 0.5953081 0.9998779
vt 0.6697063 0.9476631
vt 0.7044731 0.9476631
vt 0.7044731 0.9998779
vt 0.6697063 0.9998779

# Normal
vn 0 0 -1

# Groups (Count = 4)

g mesh_0001
f 1/1/1 2/2/1 3/3/1 4/4/1
f 5/5/1 1/6/1 4/7/1 6/8/1
f 7/5/1 5/6/1 6/7/1 8/8/1
f 9/5/1 7/6/1 8/7/1 10/8/1
f 11/5/1 9/6/1 10/7/1 12/8/1
f 13/5/1 11/6/1 12/7/1 14/8/1
f 15/5/1 13/6/1 14/7/1 16/8/1
f 17/5/1 15/6/1 16/7/1 18/8/1
f 19/5/1 17/6/1 18/7/1 20/8/1
f 21/5/1 19/6/1 20/7/1 22/8/1
f 23/5/1 21/6/1 22/7/1 24/8/1
f 25/5/1 23/6/1 24/7/1 26/8/1
f 27/5/1 25/6/1 26/7/1 28/8/1
f 29/5/1 27/6/1 28/7/1 30/8/1
f 31/5/1 29/6/1 30/7/1 32/8/1
f 33/5/1 31/6/1 32/7/1 34/8/1
f 35/5/1 33/6/1 34/7/1 36/8/1
f 37/5/1 35/6/1 36/7/1 38/8/1
f 39/5/1 37/6/1 38/7/1 40/8/1
f 41/5/1 39/6/1 40/7/1 42/8/1
f 43/5/1 41/6/1 42/7/1 44/8/1
f 45/9/1 43/10/1 44/11/1 46/12/1
f 47/13/1 48/14/1 2/15/1 1/16/1
f 49/17/1 47/18/1 1/19/1 5/20/1
f 50/17/1 49/18/1 5/19/1 7/20/1
f 51/17/1 50/18/1 7/19/1 9/20/1
f 52/17/1 51/18/1 9/19/1 11/20/1
f 53/17/1 52/18/1 11/19/1 13/20/1
f 54/17/1 53/18/1 13/19/1 15/20/1
f 55/17/1 54/18/1 15/19/1 17/20/1
f 56/17/1 55/18/1 17/19/1 19/20/1
f 57/17/1 56/18/1 19/19/1 21/20/1
f 58/17/1 57/18/1 21/19/1 23/20/1
f 59/17/1 58/18/1 23/19/1 25/20/1
f 60/17/1 59/18/1 25/19/1 27/20/1
f 61/17/1 60/18/1 27/19/1 29/20/1
f 62/17/1 61/18/1 29/19/1 31/20/1
f 63/17/1 62/18/1 31/19/1 33/20/1
f 64/17/1 63/18/1 33/19/1 35/20/1
f 65/17/1 64/18/1 35/19/1 37/20/1
f 66/17/1 65/18/1 37/19/1 39/20/1
f 67/17/1 66/18/1 39/19/1 41/20/1
f 68/17/1 67/18/1 41/19/1 43/20/1
f 69/13/1 68/14/1 43/15/1 45/16/1
f 70/13/1 71/14/1 48/15/1 47/16/1
f 72/21/1 70/22/1 47/23/1 49/24/1
f 73/21/1 72/22/1 49/23/1 50/24/1
f 74/21/1 73/22/1 50/23/1 51/24/1
f 75/21/1 74/22/1 51/23/1 52/24/1
f 76/21/1 75/22/1 52/23/1 53/24/1
f 77/21/1 76/22/1 53/23/1 54/24/1
f 78/21/1 77/22/1 54/23/1 55/24/1
f 79/21/1 78/22/1 55/23/1 56/24/1
f 80/21/1 79/22/1 56/23/1 57/24/1
f 81/21/1 80/22/1 57/23/1 58/24/1
f 82/21/1 81/22/1 58/23/1 59/24/1
f 83/21/1 82/22/1 59/23/1 60/24/1
f 84/21/1 83/22/1 60/23/1 61/24/1
f 85/21/1 84/22/1 61/23/1 62/24/1
f 86/21/1 85/22/1 62/23/1 63/24/1
f 87/21/1 86/22/1 63/23/1 64/24/1
f 88/21/1 87/22/1 64/23/1 65/24/1
f 89/21/1 88/22/1 65/23/1 66/24/1
f 90/21/1 89/22/1 66/23/1 67/24/1
f 91/21/1 90/22/1 67/23/1 68/24/1
f 92/13/1 91/14/1 68/15/1 69/16/1
f 93/13/1 94/14/1 71/15/1 70/16/1
f 95/25/1 93/26/1 70/27/1 72/28/1
f 96/25/1 95/26/1 72/27/1 73/28/1
f 97/25/1 96/26/1 73/27/1 74/28/1
f 98/25/1 97/26/1 74/27/1 75/28/1
f 99/25/1 98/26/1 75/27/1 76/28/1
f 100/25/1 99/26/1 76/27/1 77/28/1
f 101/25/1 100/26/1 77/27/1 78/28/1
f 102/25/1 101/26/1 78/27/1 79/28/1
f 103/25/1 102/26/1 79/27/1 80/28/1
f 104/25/1 103/26/1 80/27/1 81/28/1
f 105/25/1 104/26/1 81/27/1 82/28/1
f 106/25/1 105/26/1 82/27/1 83/28/1
f 107/25/1 106/26/1 83/27/1 84/28/1
f 108/25/1 107/26/1 84/27/1 85/28/1
f 109/25/1 108/26/1 85/27/1 86/28/1
f 110/25/1 109/26/1 86/27/1 87/28/1
f 111/25/1 110/26/1 87/27/1 88/28/1
f 112/25/1 111/26/1 88/27/1 89/28/1
f 113/25/1 112/26/1 89/27/1 90/28/1
f 114/25/1 113/26/1 90/27/1 91/28/1
f 115/13/1 114/14/1 91/15/1 92/16/1
f 116/13/1 117/14/1 94/15/1 93/16/1
f 118/29/1 116/30/1 93/31/1 95/32/1
f 119/33/1 118/34/1 95/35/1 96/36/1
f 120/37/1 119/38/1 96/39/1 97/40/1
f 121/33/1 120/34/1 97/35/1 98/36/1
f 122/29/1 121/30/1 98/31/1 99/32/1
f 123/29/1 122/30/1 99/31/1 100/32/1
f 124/41/1 123/42/1 100/43/1 101/44/1
f 125/37/1 124/38/1 101/39/1 102/40/1
f 126/41/1 125/42/1 102/43/1 103/44/1
f 127/29/1 126/30/1 103/31/1 104/32/1
f 128/29/1 127/30/1 104/31/1 105/32/1
f 129/41/1 128/42/1 105/43/1 106/44/1
f 130/37/1 129/38/1 106/39/1 107/40/1
f 131/37/1 130/38/1 107/39/1 108/40/1
f 132/29/1 131/30/1 108/31/1 109/32/1
f 133/29/1 132/30/1 109/31/1 110/32/1
f 134/41/1 133/42/1 110/43/1 111/44/1
f 135/37/1 134/38/1 111/39/1 112/40/1
f 136/41/1 135/42/1 112/43/1 113/44/1
f 137/29/1 136/30/1 113/31/1 114/32/1
f 138/13/1 137/14/1 114/15/1 115/16/1
f 139/13/1 140/14/1 117/15/1 116/16/1
f 141/29/1 139/30/1 116/31/1 118/32/1
f 142/37/1 141/38/1 118/39/1 119/40/1
f 143/41/1 142/42/1 119/43/1 120/44/1
f 144/37/1 143/38/1 120/39/1 121/40/1
f 145/29/1 144/30/1 121/31/1 122/32/1
f 146/29/1 145/30/1 122/31/1 123/32/1
f 147/37/1 146/38/1 123/39/1 124/40/1
f 148/37/1 147/38/1 124/39/1 125/40/1
f 149/41/1 148/42/1 125/43/1 126/44/1
f 150/29/1 149/30/1 126/31/1 127/32/1
f 151/29/1 150/30/1 127/31/1 128/32/1
f 152/41/1 151/42/1 128/43/1 129/44/1
f 153/33/1 152/34/1 129/35/1 130/36/1
f 154/33/1 153/34/1 130/35/1 131/36/1
f 155/29/1 154/30/1 131/31/1 132/32/1
f 156/29/1 155/30/1 132/31/1 133/32/1
f 157/37/1 156/38/1 133/39/1 134/40/1
f 158/37/1 157/38/1 134/39/1 135/40/1
f 159/41/1 158/42/1 135/43/1 136/44/1
f 160/29/1 159/30/1 136/31/1 137/32/1
f 161/13/1 160/14/1 137/15/1 138/16/1
f 162/13/1 163/14/1 140/15/1 139/16/1
f 164/29/1 162/30/1 139/31/1 141/32/1
f 165/33/1 164/34/1 141/35/1 142/36/1
f 166/37/1 165/38/1 142/39/1 143/40/1
f 167/33/1 166/34/1 143/35/1 144/36/1
f 168/29/1 167/30/1 144/31/1 145/32/1
f 169/29/1 168/30/1 145/31/1 146/32/1
f 170/41/1 169/42/1 146/43/1 147/44/1
f 171/41/1 170/42/1 147/43/1 148/44/1
f 172/41/1 171/42/1 148/43/1 149/44/1
f 173/29/1 172/30/1 149/31/1 150/32/1
f 174/29/1 173/30/1 150/31/1 151/32/1
f 175/41/1 174/42/1 151/43/1 152/44/1
f 176/33/1 175/34/1 152/35/1 153/36/1
f 177/37/1 176/38/1 153/39/1 154/40/1
f 178/29/1 177/30/1 154/31/1 155/32/1
f 179/29/1 178/30/1 155/31/1 156/32/1
f 180/37/1 179/38/1 156/39/1 157/40/1
f 181/41/1 180/42/1 157/43/1 158/44/1
f 182/37/1 181/38/1 158/39/1 159/40/1
f 183/29/1 182/30/1 159/31/1 160/32/1
f 184/13/1 183/14/1 160/15/1 161/16/1
f 185/13/1 186/14/1 163/15/1 162/16/1
f 187/29/1 185/30/1 162/31/1 164/32/1
f 188/41/1 187/42/1 164/43/1 165/44/1
f 189/33/1 188/34/1 165/35/1 166/36/1
f 190/41/1 189/42/1 166/43/1 167/44/1
f 191/41/1 190/42/1 167/43/1 168/44/1
f 192/41/1 191/42/1 168/43/1 169/44/1
f 193/37/1 192/38/1 169/39/1 170/40/1
f 194/33/1 193/34/1 170/35/1 171/36/1
f 195/37/1 194/38/1 171/39/1 172/40/1
f 196/33/1 195/34/1 172/35/1 173/36/1
f 197/37/1 196/38/1 173/39/1 174/40/1
f 198/33/1 197/34/1 174/35/1 175/36/1
f 199/33/1 198/34/1 175/35/1 176/36/1
f 200/41/1 199/42/1 176/43/1 177/44/1
f 201/33/1 200/34/1 177/35/1 178/36/1
f 202/33/1 201/34/1 178/35/1 179/36/1
f 203/33/1 202/34/1 179/35/1 180/36/1
f 204/33/1 203/34/1 180/35/1 181/36/1
f 205/41/1 204/42/1 181/43/1 182/44/1
f 206/29/1 205/30/1 182/31/1 183/32/1
f 207/13/1 206/14/1 183/15/1 184/16/1
f 208/13/1 209/14/1 186/15/1 185/16/1
f 210/29/1 208/30/1 185/31/1 187/32/1
f 211/29/1 210/30/1 187/31/1 188/32/1
f 212/29/1 211/30/1 188/31/1 189/32/1
f 213/29/1 212/30/1 189/31/1 190/32/1
f 214/29/1 213/30/1 190/31/1 191/32/1
f 215/29/1 214/30/1 191/31/1 192/32/1
f 216/29/1 215/30/1 192/31/1 193/32/1
f 217/29/1 216/30/1 193/31/1 194/32/1
f 218/29/1 217/30/1 194/31/1 195/32/1
f 219/29/1 218/30/1 195/31/1 196/32/1
f 220/29/1 219/30/1 196/31/1 197/32/1
f 221/29/1 220/30/1 197/31/1 198/32/1
f 222/29/1 221/30/1 198/31/1 199/32/1
f 223/29/1 222/30/1 199/31/1 200/32/1
f 224/29/1 223/30/1 200/31/1 201/32/1
f 225/29/1 224/30/1 201/31/1 202/32/1
f 226/29/1 225/30/1 202/31/1 203/32/1
f 227/29/1 226/30/1 203/31/1 204/32/1
f 228/29/1 227/30/1 204/31/1 205/32/1
f 229/29/1 228/30/1 205/31/1 206/32/1
f 230/13/1 229/14/1 206/15/1 207/16/1
f 231/45/1 232/46/1 209/47/1 208/48/1
f 233/5/1 231/6/1 208/7/1 210/8/1
f 234/5/1 233/6/1 210/7/1 211/8/1
f 235/5/1 234/6/1 211/7/1 212/8/1
f 236/5/1 235/6/1 212/7/1 213/8/1
f 237/5/1 236/6/1 213/7/1 214/8/1
f 238/5/1 237/6/1 214/7/1 215/8/1
f 239/5/1 238/6/1 215/7/1 216/8/1
f 240/5/1 239/6/1 216/7/1 217/8/1
f 241/5/1 240/6/1 217/7/1 218/8/1
f 242/5/1 241/6/1 218/7/1 219/8/1
f 243/5/1 242/6/1 219/7/1 220/8/1
f 244/5/1 243/6/1 220/7/1 221/8/1
f 245/5/1 244/6/1 221/7/1 222/8/1
f 246/5/1 245/6/1 222/7/1 223/8/1
f 247/5/1 246/6/1 223/7/1 224/8/1
f 248/5/1 247/6/1 224/7/1 225/8/1
f 249/5/1 248/6/1 225/7/1 226/8/1
f 250/5/1 249/6/1 226/7/1 227/8/1
f 251/5/1 250/6/1 227/7/1 228/8/1
f 252/5/1 251/6/1 228/7/1 229/8/1
f 253/49/1 252/50/1 229/51/1 230/52/1

g mesh_0002
f 97/53/1 96/54/1 73/55/1 74/56/1
f 102/53/1 101/54/1 78/55/1 79/56/1
f 107/53/1 106/54/1 83/55/1 84/56/1
f 112/53/1 111/54/1 88/55/1 89/56/1

g mesh_0003
f 72/57/1 70/58/1 47/59/1 49/60/1
f 75/61/1 74/62/1 51/63/1 52/64/1
f 76/65/1 75/66/1 52/67/1 53/68/1
f 77/65/1 76/66/1 53/67/1 54/68/1
f 78/69/1 77/70/1 54/71/1 55/72/1
f 81/73/1 80/74/1 57/75/1 58/76/1
f 82/77/1 81/78/1 58/79/1 59/80/1
f 85/81/1 84/82/1 61/83/1 62/84/1
f 86/85/1 85/86/1 62/87/1 63/88/1
f 87/85/1 86/86/1 63/87/1 64/88/1
f 88/89/1 87/90/1 64/91/1 65/92/1
f 90/93/1 89/94/1 66/95/1 67/96/1
f 118/97/1 116/98/1 93/99/1 95/100/1
f 129/101/1 128/102/1 105/103/1 106/104/1
f 229/101/1 228/102/1 205/103/1 206/104/1

g mesh_0004
f 98/105/1 97/106/1 74/107/1 75/108/1
f 103/105/1 102/106/1 79/107/1 80/108/1
f 108/105/1 107/106/1 84/107/1 85/108/1
f 113/105/1 112/106/1 89/107/1 90/108/1

